<?xml version="1.0" standalone="no"?>
<!DOCTYPE svg PUBLIC "-//W3C//DTD SVG 20010904//EN"
 "http://www.w3.org/TR/2001/REC-SVG-20010904/DTD/svg10.dtd">
<svg version="1.0" xmlns="http://www.w3.org/2000/svg"
 width="700.000000pt" height="700.000000pt" viewBox="0 0 700.000000 700.000000"
 preserveAspectRatio="xMidYMid meet">
<metadata>
Created by potrace 1.11, written by Peter Selinger 2001-2013
</metadata>
<g transform="translate(0.000000,700.000000) scale(0.100000,-0.100000)"
fill="#000000" stroke="none">
<path d="M3328 6995 c-1 -1 -46 -6 -98 -9 -52 -4 -106 -8 -120 -10 -14 -3 -47
-7 -73 -11 -26 -3 -71 -10 -100 -16 -29 -5 -65 -12 -82 -15 -149 -26 -476
-119 -580 -164 -11 -5 -65 -27 -120 -50 -629 -261 -1199 -739 -1577 -1320
-106 -163 -108 -167 -201 -350 -179 -356 -295 -726 -343 -1095 -3 -27 -8 -58
-10 -69 -25 -131 -24 -732 1 -826 2 -8 7 -42 10 -75 4 -33 11 -82 16 -110 5
-27 12 -66 15 -85 9 -59 81 -330 109 -415 189 -563 489 -1038 914 -1450 87
-84 240 -215 326 -277 5 -4 24 -18 40 -31 17 -13 71 -51 122 -84 329 -219 693
-380 1108 -490 l140 -37 675 -3 c658 -4 677 -3 765 17 49 12 101 24 115 26 52
10 299 87 400 126 533 202 1031 549 1399 973 48 55 102 120 121 145 19 25 37
47 40 50 11 10 126 176 164 235 80 127 102 167 159 278 67 131 106 217 156
345 39 98 126 370 135 422 2 14 12 54 22 90 18 60 19 114 19 760 l0 695 -42
160 c-37 143 -108 366 -133 420 -5 11 -16 38 -25 60 -34 85 -61 144 -125 270
-486 954 -1402 1649 -2445 1854 -82 16 -171 32 -197 35 -27 3 -68 9 -93 12
-25 3 -62 8 -83 10 -45 5 -519 14 -524 9z m432 -259 c74 -4 137 -9 140 -11 3
-2 30 -6 60 -10 337 -40 746 -167 1055 -329 322 -169 561 -342 805 -583 139
-137 213 -220 312 -352 32 -42 62 -81 68 -88 53 -64 198 -311 273 -464 96
-197 205 -498 233 -639 3 -14 9 -41 14 -60 17 -66 44 -224 59 -340 44 -353 25
-740 -54 -1098 -82 -367 -239 -741 -451 -1072 -31 -48 -148 -212 -175 -245
-129 -156 -282 -317 -414 -435 -254 -227 -623 -453 -945 -579 -168 -66 -383
-133 -501 -156 -70 -14 -189 -36 -224 -41 -22 -3 -49 -7 -61 -9 -19 -3 -61 -7
-208 -20 -32 -3 -126 -6 -210 -6 -679 -1 -1325 202 -1879 590 -372 260 -696
606 -932 996 -70 116 -197 369 -234 470 -13 33 -27 69 -32 80 -18 40 -79 238
-103 333 -27 106 -61 283 -71 377 -4 33 -9 62 -10 65 -14 24 -22 475 -10 601
13 141 17 180 31 264 8 50 17 101 20 115 2 14 6 39 9 55 3 17 21 89 40 160
214 818 747 1529 1476 1968 334 201 666 330 1046 406 81 16 173 32 203 35 30
3 64 8 75 10 11 2 74 7 140 11 66 4 121 8 122 9 4 3 202 -2 333 -8z"/>
<path d="M1885 3393 l0 -1858 135 0 135 0 1 140 c2 152 11 388 18 420 2 11 7
45 11 75 11 84 50 246 81 330 122 340 363 598 719 770 182 88 254 116 615 238
225 76 352 122 395 141 11 5 70 33 130 62 441 210 653 529 701 1054 3 39 7
163 8 278 l2 207 -137 0 -138 0 0 -182 c-1 -214 -6 -302 -26 -418 -55 -318
-196 -514 -485 -672 -83 -46 -306 -134 -519 -205 -348 -116 -491 -172 -671
-263 l-116 -58 1 886 c0 488 -1 893 -3 900 -3 9 -40 12 -138 12 l-134 0 0
-993 0 -993 -71 -69 c-85 -84 -142 -149 -198 -229 -34 -50 -41 -55 -42 -35 0
13 -1 540 -1 1172 l0 1147 -137 0 -136 0 0 -1857z"/>
<path d="M5099 5063 c-2 -284 -14 -432 -44 -553 -8 -30 -16 -68 -19 -85 -9
-49 -61 -195 -99 -275 -80 -168 -195 -315 -347 -441 -189 -157 -409 -262 -904
-429 -434 -147 -588 -213 -757 -326 -98 -65 -235 -201 -293 -291 -90 -140
-159 -321 -181 -478 -4 -27 -9 -59 -12 -70 -9 -47 -17 -223 -17 -395 l-1 -185
135 0 135 0 1 179 c3 272 12 369 50 516 85 330 275 514 692 671 59 22 116 44
127 49 11 4 110 38 220 75 110 37 272 96 361 131 150 60 184 75 307 142 26 14
50 22 54 18 4 -4 7 -406 8 -894 l0 -887 135 0 135 0 3 989 2 989 103 106 c56
58 125 139 152 180 l50 73 5 -1169 5 -1169 130 0 c72 0 132 3 135 7 4 6 5
3672 1 3702 -1 4 -62 7 -136 7 l-135 0 -1 -187z"/>
</g>
</svg>
